<svg width="11" height="17" viewBox="0 0 11 17" fill="none" xmlns="http://www.w3.org/2000/svg">
<path d="M10.1161 9.59821L0.973214 0.455357C0.866071 0.339285 0.723214 0.285713 0.571429 0.285713C0.5 0.285713 0.419643 0.303571 0.357143 0.330357C0.142857 0.419642 0 0.624999 0 0.857142V14.2857C0 14.5179 0.142857 14.7232 0.357143 14.8125C0.419643 14.8393 0.5 14.8571 0.571429 14.8571C0.723214 14.8571 0.866071 14.7946 0.973214 14.6875L3.75893 11.9018L5.46429 15.9375C5.58929 16.2232 5.91964 16.3661 6.21429 16.2411L7.79464 15.5714C8.08036 15.4464 8.22322 15.1161 8.09822 14.8214L6.30357 10.5714H9.71429C9.94643 10.5714 10.1518 10.4286 10.2411 10.2143C10.3304 10.0089 10.2857 9.75893 10.1161 9.59821Z" fill="white"/>
</svg>
